<svg xmlns="http://www.w3.org/2000/svg" width="400" height="200" viewBox="0 0 400 200" version="1.1"><path d="M 176.955 45.043 L 163.500 55.991 163 47.984 C 162.725 43.580, 162.162 39.982, 161.750 39.989 C 161.338 39.995, 156.950 40, 152 40 L 143 40 143 54.788 L 143 69.577 125.552 83.538 L 108.104 97.500 108.052 122.143 C 107.993 149.968, 108.106 149.604, 100.692 145.870 C 91.452 141.216, 81.822 131.899, 78.232 124.139 C 76.074 119.474, 75.815 117.784, 76.241 111.139 C 76.594 105.635, 76.463 104.199, 75.772 106 C 75.244 107.375, 74.817 111.583, 74.821 115.351 C 74.830 121.966, 74.774 122.122, 73.211 119.851 C 69.925 115.080, 64.507 112.589, 62.908 115.115 C 62.211 116.216, 62.027 116.141, 62.015 114.750 C 62.007 113.787, 61.550 113, 61 113 C 59.173 113, 59.965 114.806, 62.750 116.991 C 64.262 118.177, 64.938 118.863, 64.250 118.515 C 61.611 117.179, 63.160 118.936, 66.368 120.918 C 68.220 122.063, 71.077 123, 72.716 123 C 75.257 123, 75.976 123.626, 77.598 127.250 C 79.899 132.392, 89.984 142.734, 96.313 146.443 L 100.919 149.142 92.209 153.543 C 84.565 157.406, 73.449 165, 75.439 165 C 75.836 165, 80.062 163.618, 84.830 161.930 C 102.823 155.558, 127.005 150.612, 156.320 147.308 C 175.616 145.133, 236.034 144.825, 255 146.805 C 283.994 149.831, 308.711 154.463, 325.844 160.081 C 330.983 161.766, 335.397 162.936, 335.653 162.680 C 337.270 161.064, 305.329 145.137, 300.250 145.027 C 297.942 144.977, 298.985 143.517, 302.942 141.258 C 309.631 137.438, 318.480 128.453, 321.934 121.972 C 324.673 116.833, 325.193 114.796, 325.198 109.180 C 325.201 105.506, 324.820 101.513, 324.352 100.306 C 323.780 98.834, 323.500 100.971, 323.500 106.806 C 323.500 117.616, 321.900 121.247, 313.504 129.500 C 307.709 135.196, 296.014 143, 293.273 143 C 292.279 143, 292 137.870, 292 119.566 L 292 96.133 294.556 95.816 C 296.797 95.539, 295.508 94.195, 284.106 84.913 L 271.100 74.326 254.800 82.622 C 245.835 87.185, 238.162 90.937, 237.750 90.959 C 237.338 90.982, 237 88.995, 237 86.545 C 237 82.176, 237.072 82.079, 240.750 81.463 C 242.813 81.118, 244.879 80.747, 245.343 80.637 C 245.806 80.528, 241.306 76.408, 235.343 71.483 C 229.379 66.557, 217.525 56.669, 209 49.510 C 200.475 42.351, 192.805 35.954, 191.955 35.294 C 190.666 34.294, 188.178 35.911, 176.955 45.043 M 164.907 63.547 L 141.500 81.093 141 109.635 L 140.500 138.177 144.500 137.522 C 157.260 135.429, 171.206 133.951, 183.750 133.360 L 198 132.689 197.998 111.595 L 197.996 90.500 208.998 90.812 L 220 91.125 220 112.062 L 220 133 226.517 133 L 233.033 133 232.767 106.769 L 232.500 80.538 211.174 63.269 C 199.445 53.771, 189.503 46, 189.081 46 C 188.660 46, 177.781 53.896, 164.907 63.547 M 309.566 78.250 C 311.199 83.492, 311.997 84.853, 314.675 86.964 C 317.166 88.927, 317.540 88.993, 317.839 87.516 C 318.352 84.977, 316.032 80.170, 313.230 77.966 C 309.945 75.383, 308.703 75.479, 309.566 78.250 M 311.333 79.500 C 311.333 80.325, 311.756 81, 312.274 81 C 312.791 81, 312.931 81.739, 312.584 82.641 C 312.069 83.984, 312.219 84.063, 313.410 83.075 C 314.678 82.023, 314.652 81.616, 313.211 79.933 C 311.228 77.617, 311.333 77.642, 311.333 79.500 M 85.509 85.172 L 82.840 88.344 85.143 89.576 C 87.090 90.618, 87.633 90.541, 88.661 89.073 C 89.330 88.118, 90.179 86.136, 90.547 84.669 C 91.496 80.886, 88.896 81.146, 85.509 85.172 M 260.250 87.698 L 251 93.202 251 114.101 C 251 125.595, 251.228 135, 251.507 135 C 253.520 135, 273.709 138.355, 278.812 139.537 C 282.284 140.342, 285.546 141, 286.062 141 C 286.619 141, 287 131.743, 287 118.242 L 287 95.483 278.548 88.742 C 273.900 85.034, 269.962 82.044, 269.798 82.098 C 269.634 82.151, 265.337 84.672, 260.250 87.698 M 82 92 C 82 94.171, 82.738 94.452, 84.878 93.096 C 86.492 92.075, 85.529 90, 83.441 90 C 82.648 90, 82 90.900, 82 92 M 154.415 90.917 C 154.187 91.146, 154 94.408, 154 98.167 L 154 105 161.044 105 L 168.088 105 167.794 97.889 L 167.500 90.779 161.165 90.639 C 157.681 90.563, 154.644 90.688, 154.415 90.917 M 306 90.809 C 306 92.361, 307.752 93.210, 308.490 92.016 C 308.835 91.457, 309.627 91, 310.250 91 C 310.873 91, 310.509 91.666, 309.441 92.481 C 307.759 93.764, 307.700 94.098, 309 94.981 C 311.639 96.775, 317.842 98.078, 320.528 97.404 C 322.986 96.787, 323.024 96.687, 321.198 95.625 C 320.135 95.006, 318.097 93.672, 316.670 92.660 C 313.638 90.509, 306 89.184, 306 90.809 M 173 98 L 173 105 179.500 105 L 186 105 186 98 L 186 91 179.500 91 L 173 91 173 98 M 331.844 94.252 C 330.384 95.488, 328.696 97.483, 328.094 98.684 C 326.696 101.476, 326.635 108.344, 328.016 107.490 C 328.575 107.144, 328.777 106.448, 328.464 105.942 C 328.152 105.437, 328.504 105.256, 329.247 105.541 C 331.195 106.289, 335.201 98.707, 334.813 95.003 L 334.500 92.004 331.844 94.252 M 87.442 96.907 C 87.751 97.405, 87.128 97.585, 86.058 97.305 C 84.844 96.988, 83.228 97.681, 81.761 99.148 C 80.467 100.442, 78.980 101.650, 78.455 101.833 C 76.564 102.493, 77.111 102.634, 81.984 102.739 C 85.544 102.815, 87.834 102.235, 90.140 100.673 C 94.779 97.529, 94.904 96, 90.524 96 C 88.521 96, 87.134 96.408, 87.442 96.907 M 65.181 101.205 C 64.957 104.154, 66.261 106.946, 69.789 111.066 C 72.149 113.823, 73.002 113.471, 72.985 109.750 C 72.965 105.634, 71.666 103.477, 69.862 104.564 C 68.751 105.232, 68.730 105.100, 69.746 103.844 C 70.763 102.587, 70.671 102.027, 69.246 100.804 C 66.011 98.026, 65.419 98.084, 65.181 101.205 M 330 101.250 C 330 102.121, 329.438 103.060, 328.750 103.338 C 327.771 103.733, 327.778 103.859, 328.781 103.921 C 330.207 104.009, 331.599 101.266, 330.624 100.290 C 330.281 99.947, 330 100.379, 330 101.250 M 311 109 C 311 110.100, 311.498 111, 312.107 111 C 312.716 111, 312.975 111.623, 312.682 112.385 C 312.390 113.147, 313.467 115.031, 315.075 116.572 C 316.684 118.113, 318.007 118.952, 318.015 118.437 C 318.024 117.922, 318.513 118.175, 319.102 119 C 319.942 120.176, 320.050 119.960, 319.600 118 C 319.285 116.625, 319.021 115.038, 319.014 114.473 C 318.995 113.057, 313.356 107, 312.056 107 C 311.475 107, 311 107.900, 311 109 M 260 112 C 260 115.905, 260.083 116, 263.500 116 C 266.917 116, 267 115.905, 267 112 C 267 108.095, 266.917 108, 263.500 108 C 260.083 108, 260 108.095, 260 112 M 270 112 L 270 116 274 116 L 278 116 278 112 L 278 108 274 108 L 270 108 270 112 M 331.299 109.960 C 328.074 111.926, 324.052 118, 325.974 118 C 326.538 118, 327.036 117.213, 327.079 116.250 C 327.126 115.205, 327.361 115.003, 327.662 115.750 C 328.320 117.380, 331.030 117.293, 333.303 115.569 C 334.652 114.546, 334.778 114.071, 333.803 113.680 C 333.086 113.393, 333.461 113.122, 334.635 113.079 C 335.809 113.036, 337.507 111.875, 338.408 110.500 C 340.020 108.040, 340.001 108, 337.273 108.004 C 335.748 108.006, 333.059 108.886, 331.299 109.960 M 154.709 110.624 C 154.319 111.014, 154 114.408, 154 118.167 L 154 125 161.044 125 L 168.088 125 167.794 117.750 L 167.500 110.500 161.459 110.208 C 158.136 110.047, 155.099 110.234, 154.709 110.624 M 173 117.500 L 173 125 179.500 125 L 186 125 186 117.500 L 186 110 179.500 110 L 173 110 173 117.500 M 88 112.763 C 88 113.182, 86.988 113.970, 85.751 114.513 C 83.617 115.450, 80.151 121.063, 80.048 123.750 C 79.966 125.890, 82.505 125.127, 85.350 122.156 C 87.779 119.621, 90.241 112, 88.631 112 C 88.284 112, 88 112.343, 88 112.763 M 84.405 117.250 C 82.502 119.498, 82.502 119.499, 84.581 117.748 C 85.726 116.784, 86.963 116.297, 87.331 116.664 C 87.699 117.032, 88 116.808, 88 116.167 C 88 114.337, 86.485 114.793, 84.405 117.250 M 300.470 121.311 C 299.716 125.329, 303.677 135.116, 305.130 132.824 C 306.398 130.824, 306.166 126.334, 304.602 122.590 C 302.601 117.800, 301.209 117.369, 300.470 121.311 M 260 123.500 C 260 127.976, 260.019 128, 263.500 128 C 266.981 128, 267 127.976, 267 123.500 C 267 119.024, 266.981 119, 263.500 119 C 260.019 119, 260 119.024, 260 123.500 M 270 123.500 L 270 128 274 128 L 278 128 278 123.500 L 278 119 274 119 L 270 119 270 123.500 M 96.622 125.865 C 94.628 128.069, 93.369 134.927, 94.449 137.702 C 95.093 139.356, 95.300 139.314, 97.042 137.179 C 99.383 134.310, 100.407 129.260, 99.269 126.193 C 98.420 123.902, 98.401 123.899, 96.622 125.865 M 321.389 128.927 C 319.439 129.764, 317.173 133.161, 318.786 132.829 C 319.179 132.749, 320.308 133.035, 321.296 133.466 C 322.285 133.897, 325.136 134.019, 327.633 133.738 C 332.611 133.177, 335.021 131.621, 333.410 130.010 C 331.988 128.588, 323.880 127.858, 321.389 128.927 M 67.250 135.031 C 64.199 136.257, 64.406 136.854, 68.468 138.551 C 72.896 140.401, 76.991 140.395, 79.646 138.535 C 80.796 137.730, 82.021 137.280, 82.369 137.535 C 82.716 137.791, 82.813 137.737, 82.583 137.417 C 82.354 137.096, 81.985 136.983, 81.762 137.167 C 81.539 137.350, 80.570 136.713, 79.607 135.750 C 77.882 134.024, 72.397 133.215, 73.397 134.833 C 73.680 135.292, 73.277 135.667, 72.500 135.667 C 71.723 135.667, 71.320 135.292, 71.603 134.833 C 72.260 133.770, 70.149 133.866, 67.250 135.031 M 310.570 138.887 C 308.944 141.518, 318.228 144.019, 322.043 141.977 C 324.274 140.783, 324.290 140.685, 322.489 139.368 C 320.416 137.853, 311.433 137.490, 310.570 138.887 M 312.269 139.693 C 313.242 139.947, 314.592 139.930, 315.269 139.656 C 315.946 139.382, 315.150 139.175, 313.500 139.195 C 311.850 139.215, 311.296 139.439, 312.269 139.693 M 80.500 143.789 C 77.969 144.328, 75.879 145.995, 76.491 146.986 C 76.750 147.404, 79.068 147.788, 81.644 147.840 C 84.941 147.906, 86.746 147.425, 87.738 146.217 C 88.514 145.273, 88.820 145.132, 88.420 145.905 C 87.920 146.868, 88.081 147.068, 88.933 146.542 C 91.578 144.907, 85.130 142.802, 80.500 143.789" stroke="none" fill="#2c402c" fill-rule="evenodd"/><path d="M -0 100.002 L -0 200.005 200.250 199.752 L 400.500 199.500 400.755 99.750 L 401.010 0 200.505 0 L 0 0 -0 100.002 M 0.481 100.500 C 0.481 155.500, 0.602 178.147, 0.750 150.826 C 0.898 123.506, 0.898 78.506, 0.750 50.826 C 0.602 23.147, 0.481 45.500, 0.481 100.500 M 176.955 45.043 L 163.500 55.991 163 47.984 C 162.725 43.580, 162.162 39.982, 161.750 39.989 C 161.338 39.995, 156.950 40, 152 40 L 143 40 143 54.788 L 143 69.577 125.552 83.538 L 108.104 97.500 108.052 122.143 C 107.993 149.968, 108.106 149.604, 100.692 145.870 C 91.452 141.216, 81.822 131.899, 78.232 124.139 C 76.074 119.474, 75.815 117.784, 76.241 111.139 C 76.594 105.635, 76.463 104.199, 75.772 106 C 75.244 107.375, 74.817 111.583, 74.821 115.351 C 74.830 121.966, 74.774 122.122, 73.211 119.851 C 69.925 115.080, 64.507 112.589, 62.908 115.115 C 62.211 116.216, 62.027 116.141, 62.015 114.750 C 62.007 113.787, 61.550 113, 61 113 C 59.173 113, 59.965 114.806, 62.750 116.991 C 64.262 118.177, 64.938 118.863, 64.250 118.515 C 61.611 117.179, 63.160 118.936, 66.368 120.918 C 68.220 122.063, 71.077 123, 72.716 123 C 75.257 123, 75.976 123.626, 77.598 127.250 C 79.899 132.392, 89.984 142.734, 96.313 146.443 L 100.919 149.142 92.209 153.543 C 84.565 157.406, 73.449 165, 75.439 165 C 75.836 165, 80.062 163.618, 84.830 161.930 C 102.823 155.558, 127.005 150.612, 156.320 147.308 C 175.616 145.133, 236.034 144.825, 255 146.805 C 283.994 149.831, 308.711 154.463, 325.844 160.081 C 330.983 161.766, 335.397 162.936, 335.653 162.680 C 337.270 161.064, 305.329 145.137, 300.250 145.027 C 297.942 144.977, 298.985 143.517, 302.942 141.258 C 309.631 137.438, 318.480 128.453, 321.934 121.972 C 324.673 116.833, 325.193 114.796, 325.198 109.180 C 325.201 105.506, 324.820 101.513, 324.352 100.306 C 323.780 98.834, 323.500 100.971, 323.500 106.806 C 323.500 117.616, 321.900 121.247, 313.504 129.500 C 307.709 135.196, 296.014 143, 293.273 143 C 292.279 143, 292 137.870, 292 119.566 L 292 96.133 294.556 95.816 C 296.797 95.539, 295.508 94.195, 284.106 84.913 L 271.100 74.326 254.800 82.622 C 245.835 87.185, 238.162 90.937, 237.750 90.959 C 237.338 90.982, 237 88.995, 237 86.545 C 237 82.176, 237.072 82.079, 240.750 81.463 C 242.813 81.118, 244.879 80.747, 245.343 80.637 C 245.806 80.528, 241.306 76.408, 235.343 71.483 C 229.379 66.557, 217.525 56.669, 209 49.510 C 200.475 42.351, 192.805 35.954, 191.955 35.294 C 190.666 34.294, 188.178 35.911, 176.955 45.043 M 164.907 63.547 L 141.500 81.093 141 109.635 L 140.500 138.177 144.500 137.522 C 157.260 135.429, 171.206 133.951, 183.750 133.360 L 198 132.689 197.998 111.595 L 197.996 90.500 208.998 90.812 L 220 91.125 220 112.062 L 220 133 226.517 133 L 233.033 133 232.767 106.769 L 232.500 80.538 211.174 63.269 C 199.445 53.771, 189.503 46, 189.081 46 C 188.660 46, 177.781 53.896, 164.907 63.547 M 309.566 78.250 C 311.199 83.492, 311.997 84.853, 314.675 86.964 C 317.166 88.927, 317.540 88.993, 317.839 87.516 C 318.352 84.977, 316.032 80.170, 313.230 77.966 C 309.945 75.383, 308.703 75.479, 309.566 78.250 M 311.333 79.500 C 311.333 80.325, 311.756 81, 312.274 81 C 312.791 81, 312.931 81.739, 312.584 82.641 C 312.069 83.984, 312.219 84.063, 313.410 83.075 C 314.678 82.023, 314.652 81.616, 313.211 79.933 C 311.228 77.617, 311.333 77.642, 311.333 79.500 M 85.509 85.172 L 82.840 88.344 85.143 89.576 C 87.090 90.618, 87.633 90.541, 88.661 89.073 C 89.330 88.118, 90.179 86.136, 90.547 84.669 C 91.496 80.886, 88.896 81.146, 85.509 85.172 M 260.250 87.698 L 251 93.202 251 114.101 C 251 125.595, 251.228 135, 251.507 135 C 253.520 135, 273.709 138.355, 278.812 139.537 C 282.284 140.342, 285.546 141, 286.062 141 C 286.619 141, 287 131.743, 287 118.242 L 287 95.483 278.548 88.742 C 273.900 85.034, 269.962 82.044, 269.798 82.098 C 269.634 82.151, 265.337 84.672, 260.250 87.698 M 82 92 C 82 94.171, 82.738 94.452, 84.878 93.096 C 86.492 92.075, 85.529 90, 83.441 90 C 82.648 90, 82 90.900, 82 92 M 154.415 90.917 C 154.187 91.146, 154 94.408, 154 98.167 L 154 105 161.044 105 L 168.088 105 167.794 97.889 L 167.500 90.779 161.165 90.639 C 157.681 90.563, 154.644 90.688, 154.415 90.917 M 306 90.809 C 306 92.361, 307.752 93.210, 308.490 92.016 C 308.835 91.457, 309.627 91, 310.250 91 C 310.873 91, 310.509 91.666, 309.441 92.481 C 307.759 93.764, 307.700 94.098, 309 94.981 C 311.639 96.775, 317.842 98.078, 320.528 97.404 C 322.986 96.787, 323.024 96.687, 321.198 95.625 C 320.135 95.006, 318.097 93.672, 316.670 92.660 C 313.638 90.509, 306 89.184, 306 90.809 M 173 98 L 173 105 179.500 105 L 186 105 186 98 L 186 91 179.500 91 L 173 91 173 98 M 331.844 94.252 C 330.384 95.488, 328.696 97.483, 328.094 98.684 C 326.696 101.476, 326.635 108.344, 328.016 107.490 C 328.575 107.144, 328.777 106.448, 328.464 105.942 C 328.152 105.437, 328.504 105.256, 329.247 105.541 C 331.195 106.289, 335.201 98.707, 334.813 95.003 L 334.500 92.004 331.844 94.252 M 87.442 96.907 C 87.751 97.405, 87.128 97.585, 86.058 97.305 C 84.844 96.988, 83.228 97.681, 81.761 99.148 C 80.467 100.442, 78.980 101.650, 78.455 101.833 C 76.564 102.493, 77.111 102.634, 81.984 102.739 C 85.544 102.815, 87.834 102.235, 90.140 100.673 C 94.779 97.529, 94.904 96, 90.524 96 C 88.521 96, 87.134 96.408, 87.442 96.907 M 65.181 101.205 C 64.957 104.154, 66.261 106.946, 69.789 111.066 C 72.149 113.823, 73.002 113.471, 72.985 109.750 C 72.965 105.634, 71.666 103.477, 69.862 104.564 C 68.751 105.232, 68.730 105.100, 69.746 103.844 C 70.763 102.587, 70.671 102.027, 69.246 100.804 C 66.011 98.026, 65.419 98.084, 65.181 101.205 M 330 101.250 C 330 102.121, 329.438 103.060, 328.750 103.338 C 327.771 103.733, 327.778 103.859, 328.781 103.921 C 330.207 104.009, 331.599 101.266, 330.624 100.290 C 330.281 99.947, 330 100.379, 330 101.250 M 311 109 C 311 110.100, 311.498 111, 312.107 111 C 312.716 111, 312.975 111.623, 312.682 112.385 C 312.390 113.147, 313.467 115.031, 315.075 116.572 C 316.684 118.113, 318.007 118.952, 318.015 118.437 C 318.024 117.922, 318.513 118.175, 319.102 119 C 319.942 120.176, 320.050 119.960, 319.600 118 C 319.285 116.625, 319.021 115.038, 319.014 114.473 C 318.995 113.057, 313.356 107, 312.056 107 C 311.475 107, 311 107.900, 311 109 M 260 112 C 260 115.905, 260.083 116, 263.500 116 C 266.917 116, 267 115.905, 267 112 C 267 108.095, 266.917 108, 263.500 108 C 260.083 108, 260 108.095, 260 112 M 270 112 L 270 116 274 116 L 278 116 278 112 L 278 108 274 108 L 270 108 270 112 M 331.299 109.960 C 328.074 111.926, 324.052 118, 325.974 118 C 326.538 118, 327.036 117.213, 327.079 116.250 C 327.126 115.205, 327.361 115.003, 327.662 115.750 C 328.320 117.380, 331.030 117.293, 333.303 115.569 C 334.652 114.546, 334.778 114.071, 333.803 113.680 C 333.086 113.393, 333.461 113.122, 334.635 113.079 C 335.809 113.036, 337.507 111.875, 338.408 110.500 C 340.020 108.040, 340.001 108, 337.273 108.004 C 335.748 108.006, 333.059 108.886, 331.299 109.960 M 154.709 110.624 C 154.319 111.014, 154 114.408, 154 118.167 L 154 125 161.044 125 L 168.088 125 167.794 117.750 L 167.500 110.500 161.459 110.208 C 158.136 110.047, 155.099 110.234, 154.709 110.624 M 173 117.500 L 173 125 179.500 125 L 186 125 186 117.500 L 186 110 179.500 110 L 173 110 173 117.500 M 88 112.763 C 88 113.182, 86.988 113.970, 85.751 114.513 C 83.617 115.450, 80.151 121.063, 80.048 123.750 C 79.966 125.890, 82.505 125.127, 85.350 122.156 C 87.779 119.621, 90.241 112, 88.631 112 C 88.284 112, 88 112.343, 88 112.763 M 84.405 117.250 C 82.502 119.498, 82.502 119.499, 84.581 117.748 C 85.726 116.784, 86.963 116.297, 87.331 116.664 C 87.699 117.032, 88 116.808, 88 116.167 C 88 114.337, 86.485 114.793, 84.405 117.250 M 300.470 121.311 C 299.716 125.329, 303.677 135.116, 305.130 132.824 C 306.398 130.824, 306.166 126.334, 304.602 122.590 C 302.601 117.800, 301.209 117.369, 300.470 121.311 M 260 123.500 C 260 127.976, 260.019 128, 263.500 128 C 266.981 128, 267 127.976, 267 123.500 C 267 119.024, 266.981 119, 263.500 119 C 260.019 119, 260 119.024, 260 123.500 M 270 123.500 L 270 128 274 128 L 278 128 278 123.500 L 278 119 274 119 L 270 119 270 123.500 M 96.622 125.865 C 94.628 128.069, 93.369 134.927, 94.449 137.702 C 95.093 139.356, 95.300 139.314, 97.042 137.179 C 99.383 134.310, 100.407 129.260, 99.269 126.193 C 98.420 123.902, 98.401 123.899, 96.622 125.865 M 321.389 128.927 C 319.439 129.764, 317.173 133.161, 318.786 132.829 C 319.179 132.749, 320.308 133.035, 321.296 133.466 C 322.285 133.897, 325.136 134.019, 327.633 133.738 C 332.611 133.177, 335.021 131.621, 333.410 130.010 C 331.988 128.588, 323.880 127.858, 321.389 128.927 M 67.250 135.031 C 64.199 136.257, 64.406 136.854, 68.468 138.551 C 72.896 140.401, 76.991 140.395, 79.646 138.535 C 80.796 137.730, 82.021 137.280, 82.369 137.535 C 82.716 137.791, 82.813 137.737, 82.583 137.417 C 82.354 137.096, 81.985 136.983, 81.762 137.167 C 81.539 137.350, 80.570 136.713, 79.607 135.750 C 77.882 134.024, 72.397 133.215, 73.397 134.833 C 73.680 135.292, 73.277 135.667, 72.500 135.667 C 71.723 135.667, 71.320 135.292, 71.603 134.833 C 72.260 133.770, 70.149 133.866, 67.250 135.031 M 310.570 138.887 C 308.944 141.518, 318.228 144.019, 322.043 141.977 C 324.274 140.783, 324.290 140.685, 322.489 139.368 C 320.416 137.853, 311.433 137.490, 310.570 138.887 M 312.269 139.693 C 313.242 139.947, 314.592 139.930, 315.269 139.656 C 315.946 139.382, 315.150 139.175, 313.500 139.195 C 311.850 139.215, 311.296 139.439, 312.269 139.693 M 80.500 143.789 C 77.969 144.328, 75.879 145.995, 76.491 146.986 C 76.750 147.404, 79.068 147.788, 81.644 147.840 C 84.941 147.906, 86.746 147.425, 87.738 146.217 C 88.514 145.273, 88.820 145.132, 88.420 145.905 C 87.920 146.868, 88.081 147.068, 88.933 146.542 C 91.578 144.907, 85.130 142.802, 80.500 143.789" stroke="none" fill="#f9f9f8" fill-rule="evenodd"/></svg>